<svg xmlns="http://www.w3.org/2000/svg" viewBox="24.079999923706055 20.139999389648438 218.84999084472656 51.81999969482422" fill="#000000" data-color-origin="#000000" data-color-type="fill">
    <path fill="#3fb1ff" d="M70.38 20.85L70.38 58.43Q70.38 61.17 69.43 63.53Q68.48 65.88 66.78 67.61Q65.07 69.33 62.72 70.29Q60.36 71.26 57.59 71.26L57.59 71.26L24.08 71.26L24.08 62.12L57.59 62.12Q59.27 62.12 60.22 61.15Q61.17 60.19 61.17 58.43L61.17 58.43L61.17 20.85L70.38 20.85ZM133.77 41.24L133.77 50.87Q133.77 55.48 132.19 59.34Q130.61 63.21 127.79 66.02Q124.98 68.84 121.13 70.40Q117.28 71.96 112.75 71.96L112.75 71.96L100.37 71.96Q95.84 71.96 91.97 70.40Q88.10 68.84 85.29 66.02Q82.48 63.21 80.88 59.34Q79.28 55.48 79.28 50.87L79.28 50.87L79.28 41.24Q79.28 36.67 80.88 32.78Q82.48 28.90 85.29 26.10Q88.10 23.31 91.97 21.73Q95.84 20.14 100.37 20.14L100.37 20.14L112.75 20.14Q117.28 20.14 121.13 21.73Q124.98 23.31 127.79 26.10Q130.61 28.90 132.19 32.78Q133.77 36.67 133.77 41.24L133.77 41.24ZM124.63 50.87L124.63 41.24Q124.63 38.53 123.77 36.33Q122.91 34.14 121.34 32.57Q119.78 31.01 117.58 30.15Q115.38 29.29 112.75 29.29L112.75 29.29L100.37 29.29Q97.70 29.29 95.50 30.15Q93.30 31.01 91.72 32.57Q90.14 34.14 89.28 36.33Q88.42 38.53 88.42 41.24L88.42 41.24L88.42 50.87Q88.42 53.58 89.28 55.78Q90.14 57.97 91.72 59.54Q93.30 61.10 95.50 61.96Q97.70 62.82 100.37 62.82L100.37 62.82L112.68 62.82Q115.35 62.82 117.54 61.96Q119.74 61.10 121.32 59.54Q122.91 57.97 123.77 55.78Q124.63 53.58 124.63 50.87L124.63 50.87ZM182.00 20.85L192.20 20.85L168.33 69.47Q167.77 70.59 166.66 71.28Q165.55 71.96 164.21 71.96L164.21 71.96Q162.91 71.96 161.81 71.28Q160.70 70.59 160.10 69.47L160.10 69.47L136.27 20.85L146.50 20.85L164.21 57.16L182.00 20.85ZM238.82 41.45L238.82 50.66L209.95 50.66L209.95 41.45L238.82 41.45ZM242.93 62.12L242.93 71.26L209.95 71.26Q208.05 71.26 205.80 70.59Q203.55 69.93 201.64 68.40Q199.72 66.87 198.44 64.42Q197.16 61.98 197.16 58.43L197.16 58.43L197.16 25.45Q197.16 24.50 197.51 23.66Q197.86 22.82 198.47 22.18Q199.09 21.55 199.93 21.20Q200.78 20.85 201.76 20.85L201.76 20.85L242.93 20.85L242.93 29.99L206.30 29.99L206.30 58.43Q206.30 60.22 207.25 61.17Q208.20 62.12 210.02 62.12L210.02 62.12L242.93 62.12Z" class=" bl-fill-0" data-color-origin="#3fb1ff" data-color-type="fill"/>
</svg>